<svg id="emotion-05" width="60" height="60" viewBox="0 0 60 60" fill="none" xmlns="http://www.w3.org/2000/svg">
<g clip-path="url(#clip0_13_2152)">
<path d="M30 57.8571C37.3881 57.8571 44.4737 54.9222 49.6979 49.6979C54.9222 44.4737 57.8571 37.3881 57.8571 30C57.8571 22.6118 54.9222 15.5262 49.6979 10.302C44.4737 5.07776 37.3881 2.14282 30 2.14282C22.6118 2.14282 15.5262 5.07776 10.302 10.302C5.07776 15.5262 2.14282 22.6118 2.14282 30C2.14282 37.3881 5.07776 44.4737 10.302 49.6979C15.5262 54.9222 22.6118 57.8571 30 57.8571Z"  stroke-width="4.28571" stroke-linecap="round" stroke-linejoin="round"/>
<path d="M17.1428 40.7142C19.0628 34.5942 26.3571 30.8571 33.6428 32.5542C35.7276 33.0601 37.657 34.0681 39.263 35.4903C40.869 36.9126 42.1028 38.706 42.8571 40.7142M17.1428 19.2856H23.5714V21.4285M36.4285 19.2856H42.8571V21.4285"  stroke-width="4.28571" stroke-linecap="round" stroke-linejoin="round"/>
</g>
<defs>
<clipPath id="clip0_13_2152">
<rect width="60" height="60" fill="white"/>
</clipPath>
</defs>
</svg>
