<svg id="emotion-02" width="61" height="61" viewBox="0 0 61 61" fill="none" xmlns="http://www.w3.org/2000/svg">
<path d="M40.5 24.4286C40.2158 24.4286 39.9433 24.3157 39.7423 24.1148C39.5414 23.9139 39.4285 23.6414 39.4285 23.3572C39.4285 23.073 39.5414 22.8005 39.7423 22.5996C39.9433 22.3986 40.2158 22.2858 40.5 22.2858M40.5 24.4286C40.7841 24.4286 41.0566 24.3157 41.2576 24.1148C41.4585 23.9139 41.5714 23.6414 41.5714 23.3572C41.5714 23.073 41.4585 22.8005 41.2576 22.5996C41.0566 22.3986 40.7841 22.2858 40.5 22.2858M21.2143 24.4286C20.9301 24.4286 20.6576 24.3157 20.4566 24.1148C20.2557 23.9139 20.1428 23.6414 20.1428 23.3572C20.1428 23.073 20.2557 22.8005 20.4566 22.5996C20.6576 22.3986 20.9301 22.2858 21.2143 22.2858M21.2143 24.4286C21.4984 24.4286 21.7709 24.3157 21.9719 24.1148C22.1728 23.9139 22.2857 23.6414 22.2857 23.3572C22.2857 23.073 22.1728 22.8005 21.9719 22.5996C21.7709 22.3986 21.4984 22.2858 21.2143 22.2858"  stroke-width="4.28571" stroke-linecap="round" stroke-linejoin="round"/>
<path d="M30.8571 58.7143C38.2453 58.7143 45.3309 55.7793 50.5551 50.5551C55.7793 45.3309 58.7143 38.2453 58.7143 30.8571C58.7143 23.469 55.7793 16.3834 50.5551 11.1592C45.3309 5.93494 38.2453 3 30.8571 3C23.469 3 16.3834 5.93494 11.1592 11.1592C5.93494 16.3834 3 23.469 3 30.8571C3 38.2453 5.93494 45.3309 11.1592 50.5551C16.3834 55.7793 23.469 58.7143 30.8571 58.7143Z"  stroke-width="4.28571" stroke-linecap="round" stroke-linejoin="round"/>
<path d="M33.9944 44.2158C35.4901 44.4215 37.7658 43.5429 39.5658 42.1672C41.3658 40.7915 42.8015 38.8243 42.9944 37.3243" stroke-width="4.28571" stroke-linecap="round" stroke-linejoin="round"/>
</svg>
