<svg id="emotion-03" width="60" height="60" viewBox="0 0 60 60" fill="none" xmlns="http://www.w3.org/2000/svg">
<g clip-path="url(#clip0_13_2164)">
<path d="M57.8571 30C57.8571 37.3882 54.9222 44.4737 49.6979 49.698C44.4737 54.9222 37.3881 57.8571 30 57.8571C22.6118 57.8571 15.5262 54.9222 10.302 49.698C5.07776 44.4737 2.14282 37.3882 2.14282 30M23.5714 2.88857C27.7988 1.88887 32.2011 1.88887 36.4285 2.88857M15.1885 13.2214C10.9371 8.00571 6.44568 11.7129 6.38997 15.7071C6.38997 21.6557 13.5043 26.5414 15.1885 26.5414C16.8728 26.5414 23.9914 21.6557 23.9914 15.7071C23.9314 11.7129 19.44 8.00571 15.1885 13.2214ZM44.8071 13.2214C49.0585 8.00571 53.55 11.7129 53.6057 15.7071C53.6057 21.6557 46.4914 26.5414 44.8071 26.5414C43.1228 26.5414 36.0085 21.6557 36.0085 15.7071C36.0643 11.7129 40.5514 8.00571 44.8071 13.2214Z"  stroke-width="4.28571" stroke-linecap="round" stroke-linejoin="round"/>
<path d="M15.8572 34.2856C18 41.9999 26.5715 46.7142 34.2857 44.5714C39 42.8571 42.8572 38.9999 44.1429 34.2856"  stroke-width="4.28571" stroke-linecap="round" stroke-linejoin="round"/>
</g>
<defs>
<clipPath id="clip0_13_2164">
<rect width="60" height="60" fill="white"/>
</clipPath>
</defs>
</svg>
