<svg id="emotion-04" width="60" height="60" viewBox="0 0 60 60" fill="none" xmlns="http://www.w3.org/2000/svg">
<g clip-path="url(#clip0_13_2168)">
<path d="M5.27997 42.8571C3.07393 38.6109 1.99883 33.8681 2.1583 29.0857C2.31777 24.3034 3.70642 19.6427 6.19042 15.5529C8.67442 11.4632 12.17 8.08219 16.3403 5.73587C20.5106 3.38954 25.2149 2.15698 30 2.15698C34.785 2.15698 39.4894 3.38954 43.6596 5.73587C47.8299 8.08219 51.3255 11.4632 53.8095 15.5529C56.2935 19.6427 57.6822 24.3034 57.8416 29.0857C58.0011 33.8681 56.926 38.6109 54.72 42.8571"  stroke-width="4.28571" stroke-linecap="round" stroke-linejoin="round"/>
<path d="M40.7143 17.1428L36.4286 23.5714H45M19.2857 17.1428L23.5715 23.5714H15M16.9243 43.6842C15.96 33.8442 25.5943 32.1428 30 32.1428C34.4057 32.1428 44.04 33.8442 43.0757 43.6842C43.0258 44.1069 42.8205 44.4958 42.4997 44.7754C42.1789 45.0551 41.7655 45.2054 41.34 45.1971H38.1643C38.1857 51.1371 47.1429 49.9114 47.1429 53.3828C47.1429 53.3828 46.4057 57.8571 30 57.8571C13.5943 57.8571 12.8572 53.3871 12.8572 53.3871C12.8572 49.9114 21.8143 51.1371 21.8357 45.1928H18.6643C18.2388 45.2023 17.8249 45.0531 17.5033 44.7742C17.1817 44.4954 16.9753 44.1069 16.9243 43.6842Z"  stroke-width="4.28571" stroke-linecap="round" stroke-linejoin="round"/>
</g>
<defs>
<clipPath id="clip0_13_2168">
<rect width="60" height="60" fill="white"/>
</clipPath>
</defs>
</svg>
