<svg id="emotion-01" width="60" height="61" viewBox="0 0 60 61" fill="none" xmlns="http://www.w3.org/2000/svg">
<path d="M30 58.7143C37.3881 58.7143 44.4737 55.7793 49.6979 50.5551C54.9222 45.3309 57.8571 38.2453 57.8571 30.8571C57.8571 23.469 54.9222 16.3834 49.6979 11.1592C44.4737 5.93494 37.3881 3 30 3C22.6118 3 15.5262 5.93494 10.302 11.1592C5.07776 16.3834 2.14282 23.469 2.14282 30.8571C2.14282 38.2453 5.07776 45.3309 10.302 50.5551C15.5262 55.7793 22.6118 58.7143 30 58.7143Z" stroke-width="4.28571" stroke-linecap="round" stroke-linejoin="round"/>
<path d="M20.3571 22.2857C20.073 22.2857 19.8005 22.1728 19.5995 21.9719C19.3986 21.7709 19.2857 21.4984 19.2857 21.2143C19.2857 20.9301 19.3986 20.6576 19.5995 20.4566C19.8005 20.2557 20.073 20.1428 20.3571 20.1428M20.3571 22.2857C20.6413 22.2857 20.9138 22.1728 21.1148 21.9719C21.3157 21.7709 21.4286 21.4984 21.4286 21.2143C21.4286 20.9301 21.3157 20.6576 21.1148 20.4566C20.9138 20.2557 20.6413 20.1428 20.3571 20.1428M39.6429 22.2857C39.3587 22.2857 39.0862 22.1728 38.8852 21.9719C38.6843 21.7709 38.5714 21.4984 38.5714 21.2143C38.5714 20.9301 38.6843 20.6576 38.8852 20.4566C39.0862 20.2557 39.3587 20.1428 39.6429 20.1428M39.6429 22.2857C39.927 22.2857 40.1995 22.1728 40.4005 21.9719C40.6014 21.7709 40.7143 21.4984 40.7143 21.2143C40.7143 20.9301 40.6014 20.6576 40.4005 20.4566C40.1995 20.2557 39.927 20.1428 39.6429 20.1428M30 48C33.9782 48 37.7936 46.4196 40.6066 43.6066C43.4196 40.7935 45 36.9782 45 33H15C15 36.9782 16.5804 40.7935 19.3934 43.6066C22.2064 46.4196 26.0218 48 30 48Z" stroke-width="4.28571" stroke-linecap="round" stroke-linejoin="round"/>
</svg>
